<svg width="60" height="50" viewBox="0 0 60 50" fill="none" xmlns="http://www.w3.org/2000/svg">
<g clip-path="url(#clip0_6_144)">
<path d="M59.843 1.30696V48.781C59.465 49.535 58.698 50.043 57.812 50.043C57.748 50.043 57.685 50.04 57.622 50.035L57.63 50.036H2.19401C2.12801 50.044 2.05101 50.048 1.97301 50.048C0.876007 50.048 -0.0129929 49.159 -0.0129929 48.062C-0.0129929 47.984 -0.00899286 47.907 7.14061e-06 47.831L-0.000992859 47.84C-0.000992859 32.6133 -0.000992859 17.387 -0.000992859 2.16096C-0.00599286 2.10596 -0.00999286 2.04196 -0.00999286 1.97696C-0.00999286 0.879962 0.879007 -0.00903808 1.97601 -0.00903808C2.04701 -0.00903808 2.11601 -0.00503808 2.18501 0.00196192L2.17601 0.000961916C20.666 0.000961916 39.1447 0.000961916 57.612 0.000961916C57.687 -0.00803808 57.774 -0.0140381 57.863 -0.0140381C58.75 -0.0140381 59.511 0.524962 59.837 1.29296L59.843 1.30696ZM22.544 24.983V30.575C22.545 30.941 22.596 31.295 22.69 31.631L22.683 31.603C23.038 32.503 23.901 33.128 24.909 33.128C25.419 33.128 25.892 32.968 26.28 32.695L26.272 32.7C29.6 30.784 32.892 28.85 36.185 26.899C36.865 26.531 37.318 25.823 37.318 25.009C37.318 24.195 36.864 23.487 36.196 23.124L36.185 23.118C32.892 21.097 29.513 19.163 26.133 17.212C25.78 16.992 25.351 16.861 24.892 16.861C23.583 16.861 22.523 17.922 22.523 19.23C22.523 19.28 22.525 19.33 22.528 19.379V19.372C22.65 21.236 22.545 23.118 22.545 24.982L22.544 24.983ZM9.44301 6.55096V3.57196H3.57201V6.55096H9.44301ZM3.48401 46.376H9.44201V43.449H3.48401V46.376ZM18.833 3.57096H13.066V6.53296H18.833V3.57096ZM22.456 3.57096V6.53296H28.24V3.48396L22.456 3.57096ZM37.613 6.55096V3.57196H31.846V6.53396L37.613 6.55096ZM47.038 3.57096H41.219V6.53296H47.038V3.57096ZM37.631 46.394V43.554H31.847V46.481L37.631 46.394ZM18.815 46.394V43.554H13.048V46.481L18.815 46.394ZM28.24 46.394V43.554H22.473V46.498L28.24 46.394ZM47.038 43.449H41.219V46.376H47.038V43.449ZM56.289 6.55096V3.48496H50.627V6.55096H56.289ZM56.289 43.449H50.627V46.393H56.306L56.289 43.449Z" fill="#BDAE82"/>
</g>
<defs>
<clipPath id="clip0_6_144">
<rect width="60" height="50" fill="white"/>
</clipPath>
</defs>
</svg>
